<?xml version="1.0" encoding="UTF-8"?><svg id="Layer_1" xmlns="http://www.w3.org/2000/svg" viewBox="0 0 456.44 490.77"><defs><style>.cls-1{fill:#fff;}.cls-2{fill:#468e4a;}</style></defs><path class="cls-1" d="M249.37,268.63c39.27-33.27,87.65-56.42,128.62-88.26,11.21-8.02,22.37-16.13,33.59-24.14,8.34-5.06,15.96-13.33,25.22-16.13,45.68,90.72,4.71,213.31-71.82,275.71-14.7,11.97-47.56,30.51-58.92,38.32-.71.48-2,1.48-2.17.34-.14-19.68,0-49.56-.05-72.65.22-9.23-.49-14.51.36-22.39,2.62-19.1,22-30.1,37.21-44.46,16.23-14.32,32.68-31.52,43.64-49.91,3.97-6.86,6.79-14.53,9.74-21.87,2.28-5.31.22-5.64-4.35-2.59-38.4,24.38-75.39,52.05-110.25,81.12-5,3.67-7.76,9.08-7.34,15.33,0,17.36-.06,34.78,0,52.16.12,18.07-.16,36.07-.03,54.21.35,9.22,2.41,18.7,1.49,27.95-2.16,6.73-12.86,10.29-18.66,14.89-1.48.86-3.04,1.79-4.7,1.5-1.47-.29-2-1.97-2.34-4.25-.54-4.08-.44-8.31-.75-12.63-.3-15.09.25-30.19.21-45.25-.59-29.26.07-57.9-.21-87.12-.02-15.41-.23-32.53.06-47.98.34-7.09-1.54-15.04,1.38-21.74l.08-.16Z"/><path class="cls-1" d="M205.94,489.57c-4.39-.4-8.14-4.82-11.92-7.05-7.07-4.65-12.73-9.63-12.09-18.24,1.75-40.65,1.46-81.47.65-122.21,3.71-26.08-84.84-77.1-106.61-95.14-12.02-8.96-16.64-8.56-8.92,6.74,13.86,30.83,39.62,54.39,64.37,76.89,11.18,9.21,20.53,21.38,20.48,36.39-.16,27.33,1.19,58.24-.58,84.64C41.15,413.37-31.94,261.33,14.99,148.92c2.42-7.59,7.7-10.36,14.39-4.85,13.64,9.57,26.99,19.42,40.39,29.31,42.73,31.99,89.33,58.44,131.97,90.49,3,2.53,5.81,4.79,6.17,8.03-1.72,28.08,3.81,161.96-1.89,217.64l-.08.02Z"/><path class="cls-1" d="M284.24,202.94c6.57-56.82-11.18-106.01-53.63-144.51-2.73-2.16-5.25-.86-7.31,1.29-10.25,10.51-24.86,27.06-32.87,40.56-17.81,29.83-21.95,63.44-19.03,98.02.03,3.11.66,5.22-1.1,4.73-20.52-13.38-75.57-50.04-84.93-56.2-1.97-1.26-1.8-2.32-1.86-5.06.2-8.28-.66-28.94-.06-39.21.39-2.47,1.77-4.09,4.17-6.03,42.14-32.03,85.94-61.83,130.3-90.66,6.22-4.77,12.85-4.95,19.1-.07,44.68,29.19,89.15,58.83,131.26,91.7,2.32,1.94,3.69,3.56,4.1,5.99.67,10.03-.2,30.3-.02,38.35-.15,2.37.18,3.16-1.07,4.39-10.34,7.12-64.02,42.38-85.67,56.83-.48.31-1.21.78-1.36-.08v-.06Z"/><path class="cls-2" d="M272.89,394.98c0-14.3-.08-28.65,0-42.96v42.96Z"/><path class="cls-2" d="M247.91,271.1c.14-1.08.7-1.38,1-2l-1,2Z"/><path class="cls-2" d="M272.89,419.96v-1c0,.33,0,.67,0,1Z"/><path class="cls-2" d="M247.91,405.97c0-.33,0-.67,0-1l.98.5-.98.5Z"/><path class="cls-2" d="M247.91,290.08c0-.33,0-.67,0-1l.98.5-.98.5Z"/></svg>